<svg xmlns="http://www.w3.org/2000/svg" width="32" height="32" viewBox="0 0 32 32" fill="none"><path d="M18.6667 13.3333H21.3333" stroke="#1A1A1A" stroke-width="2" stroke-linecap="round" stroke-linejoin="round"></path><path d="M20 29.3334V18.6667" stroke="#1A1A1A" stroke-width="2" stroke-linecap="round" stroke-linejoin="round"></path><path d="M20 2.66669V8.00002" stroke="#1A1A1A" stroke-width="2" stroke-linecap="round" stroke-linejoin="round"></path><path d="M2.66666 13.3333H5.33332" stroke="#1A1A1A" stroke-width="2" stroke-linecap="round" stroke-linejoin="round"></path><path d="M26.6667 13.3333H29.3333" stroke="#1A1A1A" stroke-width="2" stroke-linecap="round" stroke-linejoin="round"></path><path d="M4 25.3333H28" stroke="#1A1A1A" stroke-width="2" stroke-linecap="round" stroke-linejoin="round"></path><path d="M4 29.3334V21.3334C4 20.9832 4.06898 20.6364 4.20299 20.3129C4.337 19.9893 4.53343 19.6954 4.78105 19.4477C5.02867 19.2001 5.32264 19.0037 5.64618 18.8697C5.96971 18.7357 6.31648 18.6667 6.66667 18.6667H25.3333C25.6835 18.6667 26.0303 18.7357 26.3538 18.8697C26.6774 19.0037 26.9713 19.2001 27.219 19.4477C27.4666 19.6954 27.663 19.9893 27.797 20.3129C27.931 20.6364 28 20.9832 28 21.3334V29.3334" stroke="#1A1A1A" stroke-width="2" stroke-linecap="round" stroke-linejoin="round"></path><path d="M4 2.66669V5.33335C4 6.0406 4.28095 6.71888 4.78105 7.21897C5.28115 7.71907 5.95942 8.00002 6.66667 8.00002H25.3333C26.0406 8.00002 26.7189 7.71907 27.219 7.21897C27.719 6.71888 28 6.0406 28 5.33335V2.66669" stroke="#1A1A1A" stroke-width="2" stroke-linecap="round" stroke-linejoin="round"></path><path d="M10.6667 13.3333H13.3333" stroke="#1A1A1A" stroke-width="2" stroke-linecap="round" stroke-linejoin="round"></path><path d="M12 29.3334V18.6667" stroke="#1A1A1A" stroke-width="2" stroke-linecap="round" stroke-linejoin="round"></path><path d="M12 2.66669V8.00002" stroke="#1A1A1A" stroke-width="2" stroke-linecap="round" stroke-linejoin="round"></path></svg>