<svg xmlns="http://www.w3.org/2000/svg" width="32" height="32" viewBox="0 0 32 32" fill="none"><path d="M17.1067 2.90668C16.7592 2.74821 16.3818 2.6662 16 2.6662C15.6181 2.6662 15.2407 2.74821 14.8933 2.90668L3.46666 8.10667C3.23006 8.211 3.0289 8.38187 2.88768 8.59848C2.74645 8.81509 2.67126 9.06809 2.67126 9.32667C2.67126 9.58525 2.74645 9.83826 2.88768 10.0549C3.0289 10.2715 3.23006 10.4423 3.46666 10.5467L14.9067 15.76C15.2541 15.9185 15.6315 16.0005 16.0133 16.0005C16.3952 16.0005 16.7726 15.9185 17.12 15.76L28.56 10.56C28.7966 10.4557 28.9978 10.2848 29.139 10.0682C29.2802 9.85159 29.3554 9.59859 29.3554 9.34001C29.3554 9.08143 29.2802 8.82843 29.139 8.61182C28.9978 8.39521 28.7966 8.22433 28.56 8.12001L17.1067 2.90668Z" stroke="#1A1A1A" stroke-width="2" stroke-linecap="round" stroke-linejoin="round"></path><path d="M8.10667 12.6667L3.44001 14.8C3.21094 14.9077 3.01726 15.0783 2.8816 15.292C2.74593 15.5057 2.67389 15.7535 2.67389 16.0067C2.67389 16.2598 2.74593 16.5076 2.8816 16.7213C3.01726 16.935 3.21094 17.1056 3.44001 17.2133L14.9067 22.4267C15.2523 22.5832 15.6273 22.6641 16.0067 22.6641C16.3861 22.6641 16.7611 22.5832 17.1067 22.4267L28.5467 17.2267C28.7833 17.1223 28.9844 16.9515 29.1257 16.7348C29.2669 16.5182 29.3421 16.2652 29.3421 16.0067C29.3421 15.7481 29.2669 15.4951 29.1257 15.2785C28.9844 15.0619 28.7833 14.891 28.5467 14.7867L23.88 12.6667" stroke="#1A1A1A" stroke-width="2" stroke-linecap="round" stroke-linejoin="round"></path><path d="M8.10667 19.3333L3.44001 21.4667C3.21094 21.5744 3.01726 21.745 2.8816 21.9587C2.74593 22.1724 2.67389 22.4202 2.67389 22.6733C2.67389 22.9264 2.74593 23.1743 2.8816 23.388C3.01726 23.6017 3.21094 23.7723 3.44001 23.88L14.9067 29.0933C15.2523 29.2498 15.6273 29.3308 16.0067 29.3308C16.3861 29.3308 16.7611 29.2498 17.1067 29.0933L28.5467 23.8933C28.7833 23.789 28.9844 23.6181 29.1257 23.4015C29.2669 23.1849 29.3421 22.9319 29.3421 22.6733C29.3421 22.4148 29.2669 22.1618 29.1257 21.9452C28.9844 21.7285 28.7833 21.5577 28.5467 21.4533L23.88 19.3333" stroke="#1A1A1A" stroke-width="2" stroke-linecap="round" stroke-linejoin="round"></path></svg>