<svg xmlns="http://www.w3.org/2000/svg" width="32" height="32" viewBox="0 0 32 32" fill="none"><path d="M21.3333 2.66666H5.33333C3.86057 2.66666 2.66667 3.86056 2.66667 5.33332V7.99999C2.66667 9.47275 3.86057 10.6667 5.33333 10.6667H21.3333C22.8061 10.6667 24 9.47275 24 7.99999V5.33332C24 3.86056 22.8061 2.66666 21.3333 2.66666Z" stroke="black" stroke-width="2" stroke-linecap="round" stroke-linejoin="round"></path><path d="M13.3333 21.3333V18.6667C13.3333 17.9594 13.6143 17.2811 14.1144 16.781C14.6145 16.2809 15.2928 16 16 16H26.6667C27.3739 16 28.0522 15.719 28.5523 15.2189C29.0524 14.7188 29.3333 14.0406 29.3333 13.3333V9.33332C29.3333 8.62608 29.0524 7.9478 28.5523 7.4477C28.0522 6.94761 27.3739 6.66666 26.6667 6.66666H24" stroke="black" stroke-width="2" stroke-linecap="round" stroke-linejoin="round"></path><path d="M14.6667 21.3333H12C11.2636 21.3333 10.6667 21.9303 10.6667 22.6667V28C10.6667 28.7364 11.2636 29.3333 12 29.3333H14.6667C15.403 29.3333 16 28.7364 16 28V22.6667C16 21.9303 15.403 21.3333 14.6667 21.3333Z" stroke="black" stroke-width="2" stroke-linecap="round" stroke-linejoin="round"></path></svg>