<svg xmlns="http://www.w3.org/2000/svg" width="521" height="117" viewBox="0 0 521 117" fill="none"><g clip-path="url(#clip0_108_42)"><path d="M403.775 38.7951C403.962 37.8364 404.802 37.1484 405.777 37.1484H431.684L433.816 26.3435H397.104C396.128 26.3435 395.288 27.0315 395.102 27.9902L390.004 53.8746L388.357 62.249C388.109 63.5122 389.074 64.6852 390.359 64.6852H426.271L428.397 53.8803H403.296C402.01 53.8803 401.046 52.7073 401.294 51.4441L403.781 38.8064L403.775 38.7951Z" fill="#B4111C"></path><path d="M372.116 87.1918V116.392H368.276V94.6188L358.571 116.392H355.869L346.125 94.5793V116.392H342.284V87.1918H346.418L357.217 111.328L368.016 87.1918H372.111H372.116Z" fill="#113C61"></path><path d="M399.585 106.264H381.105C381.246 108.542 382.025 110.324 383.446 111.599C384.867 112.879 386.587 113.516 388.617 113.516C390.275 113.516 391.662 113.133 392.773 112.354C393.884 111.582 394.662 110.55 395.113 109.253H399.247C398.627 111.475 397.392 113.285 395.536 114.672C393.681 116.065 391.375 116.759 388.617 116.759C386.423 116.759 384.461 116.268 382.729 115.281C380.998 114.294 379.639 112.896 378.658 111.086C377.671 109.27 377.18 107.166 377.18 104.775C377.18 102.384 377.66 100.286 378.613 98.4873C379.566 96.6884 380.914 95.3011 382.645 94.3311C384.376 93.3612 386.367 92.8762 388.617 92.8762C390.867 92.8762 392.751 93.3555 394.442 94.3086C396.128 95.2673 397.431 96.5812 398.345 98.2561C399.258 99.931 399.715 101.82 399.715 103.929C399.715 104.662 399.67 105.435 399.585 106.253V106.264ZM394.775 99.367C394.127 98.3125 393.247 97.5117 392.136 96.9591C391.025 96.412 389.796 96.1357 388.442 96.1357C386.502 96.1357 384.85 96.756 383.485 97.9911C382.12 99.2317 381.342 100.946 381.145 103.14H395.745C395.745 101.679 395.424 100.416 394.775 99.3614V99.367ZM392.581 86.7293L383.592 91.5397V88.6693L392.581 83.3965V86.7293Z" fill="#113C61"></path><path d="M416.842 116.392L411.355 107.787L406.082 116.392H402.072L409.539 104.916L402.072 93.2709H406.42L411.907 101.837L417.141 93.2709H421.15L413.723 104.707L421.19 116.398H416.842V116.392Z" fill="#113C61"></path><path d="M425.109 88.7538C424.601 88.2463 424.348 87.6316 424.348 86.8985C424.348 86.1654 424.601 85.5507 425.109 85.0432C425.617 84.5356 426.231 84.2819 426.964 84.2819C427.697 84.2819 428.267 84.5356 428.758 85.0432C429.248 85.5507 429.496 86.171 429.496 86.8985C429.496 87.626 429.248 88.2463 428.758 88.7538C428.267 89.2614 427.669 89.5152 426.964 89.5152C426.259 89.5152 425.617 89.2614 425.109 88.7538ZM428.825 93.2709V116.392H424.985V93.2709H428.825Z" fill="#113C61"></path><path d="M435.361 98.5211C436.314 96.7335 437.645 95.3518 439.348 94.365C441.051 93.3781 442.997 92.8875 445.191 92.8875C448.033 92.8875 450.373 93.5754 452.217 94.9571C454.061 96.3331 455.274 98.2504 455.866 100.698H451.732C451.337 99.2937 450.571 98.1828 449.431 97.3651C448.292 96.5474 446.877 96.1413 445.191 96.1413C442.997 96.1413 441.226 96.897 439.873 98.3971C438.525 99.9028 437.848 102.034 437.848 104.792C437.848 107.55 438.525 109.726 439.873 111.249C441.221 112.766 442.997 113.527 445.191 113.527C446.877 113.527 448.287 113.133 449.409 112.343C450.531 111.554 451.309 110.431 451.732 108.965H455.866C455.246 111.328 454.01 113.223 452.155 114.638C450.3 116.059 447.976 116.77 445.191 116.77C442.997 116.77 441.051 116.279 439.348 115.292C437.645 114.306 436.314 112.918 435.361 111.114C434.403 109.315 433.929 107.206 433.929 104.786C433.929 102.367 434.408 100.309 435.361 98.5211Z" fill="#113C61"></path><path d="M465.176 115.292C463.417 114.306 462.041 112.907 461.043 111.097C460.045 109.281 459.543 107.177 459.543 104.786C459.543 102.395 460.056 100.337 461.082 98.5211C462.109 96.7053 463.507 95.3124 465.278 94.3424C467.049 93.3724 469.034 92.8875 471.227 92.8875C473.421 92.8875 475.406 93.3724 477.177 94.3424C478.948 95.3124 480.346 96.6996 481.372 98.4986C482.399 100.298 482.912 102.395 482.912 104.786C482.912 107.177 482.388 109.281 481.333 111.097C480.278 112.913 478.852 114.311 477.053 115.292C475.254 116.279 473.258 116.77 471.058 116.77C468.859 116.77 466.93 116.279 465.171 115.292H465.176ZM474.944 112.428C476.15 111.779 477.132 110.809 477.876 109.518C478.621 108.226 478.993 106.647 478.993 104.792C478.993 102.937 478.626 101.358 477.893 100.066C477.16 98.7749 476.207 97.8106 475.023 97.1733C473.838 96.5417 472.558 96.2259 471.182 96.2259C469.806 96.2259 468.487 96.5417 467.319 97.1733C466.152 97.8049 465.216 98.7693 464.511 100.066C463.806 101.358 463.456 102.937 463.456 104.792C463.456 106.647 463.8 108.266 464.488 109.557C465.176 110.849 466.096 111.813 467.252 112.45C468.402 113.082 469.671 113.398 471.047 113.398C472.423 113.398 473.72 113.076 474.927 112.428H474.944Z" fill="#113C61"></path><path d="M497.072 25.3622C497.456 25.4525 497.851 25.4581 498.228 25.5596C499.221 25.8303 499.96 26.3886 500.416 27.3134C500.828 28.1481 501.262 28.9714 501.668 29.8117C501.759 29.9978 501.832 30.0034 502.001 29.9245C502.492 29.6876 502.988 29.4677 503.49 29.2534C503.744 29.1462 503.885 29.2477 503.902 29.5241C503.913 29.7891 503.828 30.026 503.699 30.2515C502.627 32.0618 501.55 33.8663 500.478 35.6766C500.4 35.8119 500.315 35.8345 500.163 35.8232C499.181 35.7386 498.195 35.6653 497.213 35.5863C496.21 35.5074 495.211 35.4172 494.208 35.3382C493.954 35.3156 493.7 35.2987 493.446 35.2762C493.26 35.2593 493.125 35.1859 493.097 34.9829C493.068 34.7799 493.147 34.6446 493.328 34.56C493.683 34.3908 494.044 34.2216 494.399 34.0524C494.512 34.0017 494.557 33.9566 494.49 33.8156C493.508 31.8249 492.679 29.7496 491.456 27.883C491.016 27.2119 490.514 26.5803 489.82 26.1461C489.273 25.8021 488.664 25.6047 488.049 25.413C488.016 25.4017 487.987 25.3792 487.959 25.3679H497.072V25.3622Z" fill="#113C61"></path><path d="M497.867 55.9837C497.49 55.6961 497.27 55.2845 497.016 54.8954C495.995 53.3276 494.975 51.7542 493.948 50.1865C493.852 50.0399 493.847 49.944 493.937 49.7861C494.997 47.959 496.046 46.1262 497.095 44.2991C497.106 44.2765 497.123 44.2539 497.134 44.2314C497.253 44.034 497.366 43.7859 497.648 43.8705C497.918 43.9494 497.901 44.2258 497.913 44.4513C497.93 44.784 497.924 45.1224 497.913 45.4551C497.913 45.6074 497.963 45.6469 498.11 45.6469C500.247 45.6243 502.385 45.6863 504.516 45.6017C506.09 45.5341 507.449 44.9871 508.492 43.7577C508.548 43.8423 508.481 43.8874 508.458 43.9381C508.43 44.0002 508.39 44.0622 508.357 44.1242C506.851 46.8593 505.34 49.5887 503.851 52.3295C503.326 53.2938 502.548 53.7675 501.46 53.7618C500.507 53.7618 499.554 53.7731 498.601 53.7618C498.437 53.7618 498.386 53.7957 498.386 53.9592C498.398 54.4442 498.375 54.9292 498.398 55.4142C498.409 55.6849 498.33 55.871 498.076 55.9781H497.862L497.867 55.9837Z" fill="#113C61"></path><path d="M481.965 51.6697C481.66 51.1396 481.378 50.6546 481.102 50.1696C479.929 48.1169 478.75 46.0642 477.577 44.0115C477.301 43.5321 477.002 43.0641 476.889 42.5114C476.76 41.8798 476.985 41.3328 477.278 40.8027C477.763 39.9455 478.327 39.1335 478.863 38.3045C478.976 38.124 478.981 38.0338 478.784 37.9266C478.355 37.6842 477.933 37.4247 477.515 37.1653C477.369 37.0751 477.211 36.9736 477.284 36.748C477.352 36.5337 477.498 36.4379 477.718 36.4322C478.818 36.3984 479.923 36.3645 481.023 36.3364C482.179 36.3025 483.329 36.28 484.485 36.2461C484.632 36.2461 484.722 36.28 484.796 36.4209C485.805 38.3327 486.82 40.2444 487.835 42.1505C487.903 42.2802 487.948 42.4268 487.987 42.5678C488.021 42.7031 488.016 42.8159 487.903 42.9005C487.773 42.9964 487.643 42.9795 487.508 42.9005C487.125 42.6637 486.741 42.4381 486.363 42.1956C486.267 42.1336 486.222 42.1054 486.143 42.2294C484.931 44.1525 483.713 46.0642 482.5 47.9872C481.818 49.0756 481.694 50.2542 481.965 51.4892C481.976 51.5287 481.965 51.5738 481.965 51.6753V51.6697Z" fill="#113C61"></path><path d="M492.409 49.7579C492.409 50.9873 492.409 52.211 492.409 53.4404C492.409 53.6378 492.358 53.6942 492.161 53.6942C489.769 53.6885 487.373 53.6942 484.982 53.6886C483.871 53.6886 483.267 53.1472 483.03 51.9686C482.726 50.4629 482.985 49.0643 483.837 47.7842C484.232 47.1921 484.638 46.6056 485.027 46.0078C485.106 45.8837 485.196 45.8555 485.331 45.8555C487.61 45.8555 489.888 45.8555 492.166 45.8555C492.369 45.8555 492.414 45.9176 492.414 46.1093C492.403 47.3274 492.414 48.5455 492.414 49.7636L492.409 49.7579Z" fill="#113C61"></path><path d="M503.45 44.4964C502.903 44.4964 502.356 44.4964 501.809 44.4964C501.674 44.4964 501.589 44.4626 501.516 44.3385C500.298 42.3084 499.069 40.2839 497.839 38.265C497.777 38.1578 497.755 38.1014 497.89 38.0225C500.005 36.7988 502.12 35.5694 504.229 34.3344C504.437 34.216 504.471 34.3513 504.539 34.4584C505.655 36.1672 506.772 37.8759 507.889 39.5846C508.137 39.9681 508.441 40.3233 508.554 40.7745C508.734 41.485 508.537 42.1279 508.086 42.6749C507.358 43.5547 506.479 44.237 505.328 44.4513C504.764 44.5585 504.184 44.4795 503.614 44.4964C503.563 44.4964 503.507 44.4964 503.456 44.4964H503.45Z" fill="#113C61"></path><path d="M491.946 31.2102C491.918 31.261 491.895 31.323 491.862 31.3681C490.627 33.2798 489.386 35.1972 488.162 37.1146C488.061 37.2725 487.999 37.2499 487.869 37.1597C485.844 35.8006 483.82 34.4415 481.795 33.0937C481.66 33.0035 481.626 32.9415 481.722 32.7892C482.901 30.9226 484.074 29.0503 485.235 27.1724C485.602 26.5747 486.155 26.3378 486.814 26.2589C488.1 26.101 489.031 26.7213 489.82 27.6349C490.711 28.6612 491.326 29.8568 491.884 31.0861C491.901 31.1256 491.918 31.1651 491.941 31.2158L491.946 31.2102Z" fill="#113C61"></path><path d="M349.322 75.5465C370.351 74.1762 391.516 71.4975 411.4 64.4314C429.536 57.7883 452.871 52.2167 471.402 60.2189C476.421 62.452 481.762 66.6646 481.982 72.6874C482.168 78.4959 477.233 82.6126 472.31 84.4003L471.955 83.7405C474.842 81.1126 478.299 77.2835 477.329 73.2175C474.205 63.4671 451.225 63.8844 442.461 64.0593C431.696 64.313 421.015 66.8 410.779 70.1215C396.935 74.0014 382.583 75.4958 368.298 76.1612C361.977 76.4432 355.655 76.5222 349.328 76.2909V75.5409L349.322 75.5465Z" fill="#113C61"></path><path d="M60.6453 38.4737L78.223 46.5548V0.165741H21.4181V0.239052C9.44022 1.14698 0 11.1511 0 23.3603C0 25.4186 0.270687 27.4149 0.772587 29.3154C2.42491 37.1653 11.2222 52.9329 48.797 77.5203V89.4588C48.797 89.4588 33.069 94.9063 14.6115 95.3349L66.4086 105.209C66.4086 105.209 83.4225 102.469 101.384 89.4588V77.5203C101.384 77.5203 68.67 52.1208 60.634 38.4737H60.6453Z" fill="url(#paint0_linear_108_42)"></path><path d="M48.7971 77.5203C45.498 77.5203 42.825 80.1934 42.825 83.4924C42.825 86.7914 45.498 89.4644 48.7971 89.4644H101.389V77.526H48.7971V77.5203Z" fill="url(#paint1_linear_108_42)"></path><path d="M101.389 88.7764C98.4738 88.7764 96.0997 86.4022 96.0997 83.4867C96.0997 80.5712 98.4738 78.197 101.389 78.197C104.305 78.197 106.679 80.5712 106.679 83.4867C106.679 86.4022 104.305 88.7764 101.389 88.7764Z" fill="#EDEDED"></path><path d="M101.389 78.8794C103.933 78.8794 105.997 80.949 105.997 83.4867C105.997 86.0244 103.927 88.0941 101.389 88.0941C98.8517 88.0941 96.782 86.0244 96.782 83.4867C96.782 80.949 98.8517 78.8794 101.389 78.8794ZM101.389 77.5203C98.0904 77.5203 95.4173 80.1934 95.4173 83.4924C95.4173 86.7914 98.0904 89.4644 101.389 89.4644C104.688 89.4644 107.361 86.7914 107.361 83.4924C107.361 80.1934 104.688 77.5203 101.389 77.5203Z" fill="#113C61"></path><path d="M78.223 45.1957C66.1831 45.1957 56.3876 35.4002 56.3876 23.3603C56.3876 11.3203 66.1831 1.52481 78.223 1.52481C90.263 1.52481 100.058 11.3203 100.058 23.3603C100.058 35.4002 90.263 45.1957 78.223 45.1957Z" fill="white"></path><path d="M78.223 2.88953C89.5299 2.88953 98.6994 12.0534 98.6994 23.3659C98.6994 34.6784 89.5355 43.8423 78.223 43.8423C66.9106 43.8423 57.7467 34.6784 57.7467 23.3659C57.7467 12.0534 66.9162 2.88953 78.223 2.88953ZM78.223 0.165741C65.4331 0.165741 55.0285 10.5703 55.0285 23.3603C55.0285 36.1503 65.4331 46.5548 78.223 46.5548C91.013 46.5548 101.418 36.1503 101.418 23.3603C101.418 10.5703 91.013 0.165741 78.223 0.165741Z" fill="#113C61"></path><path d="M78.223 36.5281C70.9652 36.5281 65.0552 30.6237 65.0552 23.3603C65.0552 16.0968 70.9596 10.1925 78.223 10.1925C85.4865 10.1925 91.3908 16.0968 91.3908 23.3603C91.3908 30.6237 85.4865 36.5281 78.223 36.5281Z" fill="url(#paint2_radial_108_42)"></path><path d="M78.223 11.5572C84.7421 11.5572 90.0318 16.8412 90.0318 23.3659C90.0318 29.8906 84.7477 35.1746 78.223 35.1746C71.6983 35.1746 66.4143 29.8906 66.4143 23.3659C66.4143 16.8412 71.6983 11.5572 78.223 11.5572ZM78.223 8.83337C70.2096 8.83337 63.6961 15.3524 63.6961 23.3603C63.6961 31.3681 70.2152 37.8872 78.223 37.8872C86.2309 37.8872 92.7499 31.3681 92.7499 23.3603C92.7499 15.3524 86.2309 8.83337 78.223 8.83337Z" fill="#113C61"></path><path d="M122.712 64.674H111.907L122.712 9.78644H133.517L122.712 64.674Z" fill="#B4111C"></path><path d="M135.118 27.9902L127.894 64.6796H138.699L143.774 38.8797C143.961 37.921 144.801 37.233 145.776 37.233H158.397C159.683 37.233 160.647 38.406 160.399 39.6692L155.482 64.6796H166.281L173.347 28.7797C173.595 27.5165 172.631 26.3435 171.345 26.3435H137.114C136.139 26.3435 135.299 27.0315 135.112 27.9902H135.118Z" fill="#B4111C"></path><path d="M249.658 26.3435L244.245 53.8746H227.462L232.876 26.3435H222.076L215.01 62.2434C214.762 63.5066 215.727 64.6796 217.012 64.6796H251.243C252.219 64.6796 253.059 63.9916 253.245 63.0329L260.469 26.3435H249.664H249.658Z" fill="#B4111C"></path><path d="M291.13 37.1484H301.929L304.061 26.3435H267.349C266.373 26.3435 265.533 27.0315 265.347 27.9902L263.542 37.1484L262.589 42.0152L261.208 49.0023H287.972C288.401 49.0023 288.722 49.3914 288.637 49.8143L287.944 53.322C287.882 53.6434 287.6 53.869 287.278 53.869H260.249L258.123 64.6739H294.835C295.811 64.6739 296.651 63.986 296.837 63.0273L298.636 53.869L299.595 49.0023L300.971 42.0152H274.218C273.789 42.0152 273.468 41.626 273.552 41.2031L274.246 37.6954C274.308 37.374 274.59 37.1484 274.911 37.1484H291.136H291.13Z" fill="#B4111C"></path><path d="M390.484 28.7797C390.732 27.5165 389.767 26.3435 388.482 26.3435H352.576L350.444 37.1484H378.038L377.079 42.0152H351.172C350.196 42.0152 349.356 42.7031 349.17 43.6618L348.115 49.0079L347.162 53.8746H347.157L345.51 62.249C345.262 63.5122 346.226 64.6852 347.512 64.6852H383.423L385.549 53.8803L386.508 49.0136L387.884 42.0264L388.843 37.1597L390.489 28.7909L390.484 28.7797ZM357.956 53.869L358.915 49.0023H375.697L374.739 53.869H357.956Z" fill="#B4111C"></path><path d="M221.298 9.78644H210.493L207.217 26.4281H180.058C179.082 26.4281 178.242 27.1104 178.056 28.0691L171.328 62.2378C171.08 63.501 172.044 64.674 173.33 64.674H210.493L221.298 9.78644ZM188.731 37.233H202.61C203.895 37.233 204.86 38.406 204.611 39.6692L202.141 52.228C201.955 53.1867 201.115 53.8747 200.14 53.8747H186.261C184.975 53.8747 184.011 52.7017 184.259 51.4385L186.729 38.8797C186.915 37.921 187.756 37.233 188.731 37.233Z" fill="#B4111C"></path><path d="M309.723 26.3435L298.918 81.231H309.723L312.982 64.6796H338.895C339.871 64.6796 340.711 63.9916 340.897 63.0329L347.642 28.7797C347.89 27.5165 346.925 26.3435 345.64 26.3435H309.734H309.723ZM334.226 42.0152L332.85 49.0023L331.891 53.869H315.108L316.067 49.0023L317.443 42.0152L318.402 37.1484H335.184L334.226 42.0152Z" fill="#B4111C"></path><path d="M475.643 18.5556H464.838L451.614 42.0152H444.914L451.168 9.78644H440.363L429.558 64.674H429.649H440.454L443.538 49.0023H457.84C459.125 49.0023 460.09 50.1753 459.842 51.4385L457.242 64.674H468.041L472.022 44.4457C472.271 43.1825 471.306 42.0095 470.021 42.0095H462.424L475.649 18.5499L475.643 18.5556Z" fill="#B4111C"></path><path d="M516.861 9.94996C518.152 10.6944 519.167 11.7207 519.9 13.029C520.633 14.3374 521 15.8092 521 17.439C521 19.0687 520.633 20.5462 519.9 21.8715C519.167 23.1911 518.158 24.2287 516.861 24.9731C515.569 25.7175 514.103 26.0897 512.473 26.0897C510.844 26.0897 509.338 25.7175 508.041 24.9731C506.749 24.2287 505.734 23.1967 505.001 21.8715C504.268 20.5519 503.902 19.0744 503.902 17.439C503.902 15.8036 504.268 14.3374 505.001 13.029C505.734 11.7207 506.744 10.6944 508.041 9.94996C509.332 9.20557 510.81 8.83337 512.473 8.83337C514.137 8.83337 515.569 9.20557 516.861 9.94996ZM517.391 22.4636C518.643 21.1722 519.269 19.4973 519.269 17.4446C519.269 15.3919 518.643 13.717 517.391 12.4256C516.139 11.1342 514.498 10.4857 512.473 10.4857C510.449 10.4857 508.78 11.1342 507.556 12.4256C506.332 13.717 505.717 15.3919 505.717 17.4446C505.717 19.4973 506.332 21.1722 507.556 22.4636C508.78 23.7607 510.415 24.4035 512.473 24.4035C514.532 24.4035 516.139 23.755 517.391 22.4636ZM515.744 17.3769C515.395 17.8394 514.904 18.1721 514.289 18.3695L516.652 21.8715L513.996 21.911L511.971 18.533H511.255V21.911H509.062V12.8373H513.111C514.064 12.8373 514.831 13.0911 515.411 13.5986C515.987 14.1061 516.274 14.7941 516.274 15.6682C516.274 16.3449 516.099 16.9145 515.75 17.3769H515.744ZM511.25 16.7228H512.981C513.291 16.7228 513.55 16.6382 513.759 16.469C513.968 16.2998 514.075 16.063 514.075 15.7528C514.075 15.4427 513.968 15.2114 513.759 15.0592C513.55 14.9069 513.285 14.828 512.981 14.828H511.25V16.7284V16.7228Z" fill="#B4111C"></path></g><defs><linearGradient id="paint0_linear_108_42" x1="50.6975" y1="3.21097" x2="50.6975" y2="143.314" gradientUnits="userSpaceOnUse"><stop stop-color="#96999C"></stop><stop offset="0.5" stop-color="#DADADA"></stop><stop offset="1" stop-color="#EDEDED"></stop></linearGradient><linearGradient id="paint1_linear_108_42" x1="72.11" y1="89.4588" x2="72.11" y2="77.5203" gradientUnits="userSpaceOnUse"><stop stop-color="#113C61"></stop><stop offset="0.5" stop-color="#124B7C"></stop><stop offset="1" stop-color="#113C61"></stop></linearGradient><radialGradient id="paint2_radial_108_42" cx="0" cy="0" r="1" gradientUnits="userSpaceOnUse" gradientTransform="translate(72.7698 24.1554) scale(16.3146 16.3146)"><stop offset="0.09" stop-color="#96999C"></stop><stop offset="0.25" stop-color="#AAACAE"></stop><stop offset="0.57" stop-color="#CECFD0"></stop><stop offset="0.83" stop-color="#E4E5E5"></stop><stop offset="1" stop-color="#EDEDED"></stop></radialGradient><clipPath id="clip0_108_42"><rect width="521" height="116.604" fill="white" transform="translate(0 0.165741)"></rect></clipPath></defs></svg>